<?xml version="1.0" encoding="UTF-8"?>
<svg viewBox="0 0 500 500" xmlns="http://www.w3.org/2000/svg">
 <g transform="translate(0 -552.36)">
  <path transform="matrix(2.2503 0 0 1.9613 -449.65 -150.7)" d="m385.88 464.96a78.792 78.792 0 1 1 -157.58 0 78.792 78.792 0 1 1 157.58 0z" fill="#ffeb64"/>
  <path d="m141.52 726.24h76.681v47.542h-76.681z" fill="#ffe8c6"/>
  <path d="m183.69 722.41h76.681v47.542h-76.681z" fill="#ffe8c6"/>
  <path d="m226.63 717.04h76.681v47.542h-76.681z" fill="#ffe8c6"/>
  <path d="m257.3 712.44h76.681v47.542h-76.681z" fill="#ffe8c6"/>
  <path d="m274.17 730.08h76.681v47.542h-76.681z" fill="#ffe8c6"/>
  <path d="m140.8 804.31h22.773v25.213h-22.773z" fill="#ffe8c6"/>
  <path d="m149.2 820.3h22.773v25.213h-22.773z" fill="#ffe8c6"/>
  <path d="m151.64 835.22h22.773v25.213h-22.773z" fill="#ffe8c6"/>
  <path d="m328.13 829.25h22.773v25.213h-22.773z" fill="#ffe8c6"/>
  <path d="m331.39 810.82h22.773v25.213h-22.773z" fill="#ffe8c6"/>
  <path d="m335.18 798.89h22.773v25.213h-22.773z" fill="#ffe8c6"/>
  <path d="m254.93 862.87h22.773v25.213h-22.773z" fill="#ffe8c6"/>
  <path d="m239.21 866.12h22.773v25.213h-22.773z" fill="#ffe8c6"/>
  <path d="m234.33 865.58h22.773v25.213h-22.773z" fill="#ffe8c6"/>
 </g>
 <g transform="translate(0 -552.36)">
  <path d="m178.62 690.53c-0.89577 0.39294-1.7813 0.80854-2.6378 1.2812-1.2559 0.70536-2.5409 1.61-3.7962 2.4683-2.4576 1.6874-4.8487 3.4561-7.1395 5.3633-2.4584 2.1092-4.8263 4.3192-7.1818 6.5416-2.2314 2.1228-4.3271 4.3808-6.3137 6.7326-2.2125 2.559-4.2566 5.2329-6.1216 8.0532-1.9314 2.9858-3.5748 6.1394-5.1714 9.3125-1.6429 3.1331-2.7811 6.4559-3.7309 9.8518-1.0537 3.7413-1.7768 7.5563-2.3527 11.396-0.52674 3.4652-0.87076 6.9481-1.0327 10.448-0.10027 3.0014 0.0932 6.0014 0.38132 8.9872 0.30492 2.8538 0.91469 5.6601 1.6486 8.4306 0.72803 2.8054 1.5646 5.5829 2.4802 8.3324 1.0992 3.1169 2.3115 6.192 3.4608 9.2906 1.1799 3.0214 2.2887 6.0694 3.4309 9.1049 1.0056 2.6054 2.0221 5.206 2.9823 7.8287 0.96002 2.7066 1.8669 5.432 2.7101 8.1772 0.70681 2.3181 1.3033 4.6674 1.8224 7.034 0.44904 2.096 0.79738 4.2113 1.1122 6.3309 0.27632 1.8866 0.48702 3.7817 0.67546 5.6788 0.16425 1.668 0.21501 3.349 0.17692 5.0243-0.0657 1.5069-0.15716 3.0124-0.23089 4.5189-0.0977 1.4953-0.0876 2.9947 0.0172 4.489 0.23343 1.7713 0.93696 3.3987 1.7824 4.9532 1.0228 1.7975 2.5628 3.1914 4.0436 4.601 1.4057 1.3645 2.9718 2.5357 4.6203 3.5868 1.6571 1.0602 3.4626 1.8143 5.2972 2.5023 2.1575 0.79203 4.3542 1.4651 6.5588 2.1116 2.2788 0.65436 4.5949 1.1612 6.9232 1.602 2.6851 0.45642 5.3987 0.72143 8.1078 0.98919 2.4257 0.23671 4.8554 0.42815 7.2864 0.60167 2.1717 0.15738 4.3464 0.2665 6.5214 0.36505 2.1217 0.0562 4.2383 0.18464 6.3548 0.33769 2.145 0.15566 4.2924 0.27375 6.4403 0.38213 2.0105 0.10993 4.0027 0.40541 5.9989 0.6541 1.8803 0.23598 3.7589 0.50207 5.6277 0.81737 1.7888 0.3239 3.5627 0.72068 5.3516 1.0458 1.7898 0.38336 3.5891 0.71501 5.3961 1.0057 1.7348 0.27495 3.4795 0.47972 5.2261 0.66228 1.6586 0.17005 3.3214 0.29344 4.9849 0.40333 1.6101 0.10413 3.222 0.17863 4.8341 0.24483 1.5804 0.0636 3.1614 0.10864 4.7424 0.14857 1.6163 0.0515 3.2309 0.0773 4.8471 0.0193 1.6705-0.082 3.3403-0.23835 5.0006-0.44152 1.8257-0.19925 3.6352-0.50325 5.4376-0.85103 1.8433-0.36357 3.6903-0.71897 5.523-1.1337 1.7636-0.40794 3.5237-0.83005 5.2946-1.2061 1.6776-0.3288 3.3398-0.7304 4.99-1.1752 1.6123-0.38834 3.1944-0.8865 4.7861-1.3491 1.5779-0.4623 3.1657-0.88987 4.7468-1.3408 1.562-0.43091 3.1246-0.86026 4.6906-1.2766 1.5743-0.37 3.103-0.90125 4.6546-1.3525 1.525-0.39292 3.0359-0.83669 4.5567-1.2456 1.6969-0.46892 3.3758-0.99595 5.0592-1.51 1.5563-0.46711 3.1415-0.82344 4.7104-1.244 1.5177-0.39762 3.0422-0.76889 4.5583-1.1725 1.5457-0.40262 3.0965-0.77889 4.6228-1.2516 1.4658-0.42843 2.8844-1.0058 4.2509-1.6847 0.95248-0.49734 1.8718-1.186 2.726-1.9845 1.0213-1.0137 1.8746-2.1661 2.6321-3.3847 0.74196-1.2268 1.2746-2.558 1.7441-3.9077 0.47252-1.3552 0.74541-2.7652 1.0899-4.1549 0.36261-1.3479 0.65562-2.712 0.90739-4.0844 0.29483-1.5505 0.44302-3.1182 0.51104-4.6931 0.0554-1.7016 0.0732-3.4042 0.0927-5.1065 0.0172-1.6422 0.0303-3.2844 0.0412-4.9267 0.0129-1.7612 0.0193-3.5223 0.0249-5.2835-0.0107-1.7411 0.12196-3.4791 0.22083-5.2164 0.10005-1.5328 0.34559-3.0468 0.58952-4.5613 0.30471-1.444 0.56557-2.897 0.86679-4.3415 0.28541-1.4295 0.63338-2.8456 1.0198-4.2509 0.41058-1.4276 0.83085-2.8546 1.3317-4.2536 0.53204-1.4601 1.0513-2.9249 1.5855-4.3842 0.49692-1.443 1.0576-2.8625 1.5503-4.3069 0.52554-1.4054 0.97326-2.836 1.3601-4.2851 0.34862-1.4734 0.67895-2.9518 0.99585-4.4325 0.39949-1.6082 0.74213-3.2278 1.0344-4.8586 0.31139-1.757 0.51336-3.5303 0.68708-5.3053 0.18401-1.9125 0.30969-3.8296 0.41849-5.7476 0.10971-1.961 0.18507-3.9236 0.25404-5.8863 0.0548-1.9983 0.14063-3.9967 0.12689-5.996-9e-3 -2.1278-0.13462-4.2498-0.28249-6.3715-0.11852-2.0981-0.2899-4.1907-0.49198-6.2822-0.17713-1.9208-0.45913-3.8299-0.69245-5.7444-0.20891-1.7974-0.46069-3.5917-0.82303-5.3649-0.45853-2.0015-1.2063-3.9204-1.9486-5.8298-0.70372-1.8641-1.4947-3.6913-2.3685-5.4816-0.79561-1.7272-1.8066-3.339-2.8806-4.9037-1.0667-1.5857-2.1538-3.1569-3.2474-4.7241-1.1406-1.4962-2.341-2.9506-3.5918-4.3563-1.4845-1.6266-3.0268-3.199-4.591-4.7487-1.5685-1.5522-3.2541-2.9721-4.9847-4.3385-1.9977-1.5811-4.1399-2.96-6.3066-4.2946-2.3814-1.4709-4.8604-2.7637-7.3716-3.9955-2.3984-1.2396-4.84-2.3886-7.3098-3.4777-2.5271-1.1129-5.1048-2.1034-7.7068-3.0254-2.4097-0.80921-4.834-1.5749-7.2736-2.2893-2.3649-0.69936-4.775-1.2258-7.1606-1.8459-2.2795-0.60562-4.579-1.1292-6.8894-1.6016-1.9696-0.46626-3.946-0.89653-5.9362-1.2651-1.8372-0.33541-3.6876-0.58999-5.5408-0.8176-1.877-0.20912-3.7596-0.35027-5.6357-0.56751-1.787-0.21767-3.5779-0.4006-5.3708-0.56113-1.7111-0.1518-3.4253-0.26109-5.1404-0.35487-1.7373-0.093-3.4758-0.15888-5.2146-0.2158-1.8575-0.0597-3.7156-0.0964-5.5737-0.13097-1.8206-0.0331-3.6413-0.0582-5.462-0.0797-1.8458-0.0215-3.6917-0.0354-5.5376-0.0483l-5.3323-0.0294-5.3406-0.0172c-2.0373-0.0393-4.0718 0.0193-6.1068 0.10521-1.9905 0.05-3.9725 0.23628-5.9554 0.40414-1.75 0.149-3.4973 0.36013-5.2337 0.62481-1.5863 0.20548-3.142 0.55931-4.6898 0.95341-1.5982 0.37569-3.1351 0.94245-4.6798 1.4881-1.4211 0.5334-2.827 1.094-4.2089 1.7215-1.2992 0.58256-2.5846 1.1952-3.8836 1.7789-1.3404 0.60865-2.6686 1.2412-3.9874 1.8951-1.3012 0.61488-2.6032 1.2284-3.8653 1.921-0.52298 0.2786-1.4395 0.79875-1.76 0.97693l-0.71454 0.27489c1.016-0.59087 2.0354-1.1754 3.0707-1.7322 1.2647-0.68794 2.5664-1.3022 3.8671-1.9186 1.3188-0.65421 2.6488-1.2837 3.9892-1.8929 1.2982-0.58518 2.5841-1.1968 3.8834-1.779 1.3827-0.62675 2.7914-1.1833 4.2129-1.7162 1.5452-0.54675 3.0853-1.1066 4.684-1.4827 1.549-0.39381 3.1075-0.73979 4.6943-0.94728 1.7378-0.261 3.4854-0.47442 5.2365-0.62065 1.9834-0.1679 3.9662-0.35115 5.9572-0.40148 2.0358-0.0861 4.0711-0.14042 6.109-0.10263 1.7803 4e-3 3.5606 0.0107 5.3408 0.0172l5.3324 0.0296c1.846 0.0129 3.692 0.0273 5.5379 0.0485 1.8208 0.0215 3.6416 0.0468 5.4623 0.0801 1.8583 0.0348 3.7167 0.0717 5.5744 0.13183 1.7391 0.0573 3.478 0.12367 5.2156 0.21716 1.7156 0.0945 3.4304 0.20461 5.1419 0.35701 1.7933 0.16146 3.5844 0.34529 5.3719 0.56281 1.8763 0.21627 3.7593 0.35583 5.6361 0.56794 1.8541 0.22879 3.7054 0.48466 5.5434 0.82149 1.9902 0.37002 3.9664 0.80263 5.9368 1.2664 2.311 0.4739 4.6111 0.99905 6.8915 1.605 2.3866 0.61866 4.7967 1.1474 7.1618 1.848 2.4403 0.71566 4.8658 1.4814 7.2759 2.2928 2.603 0.92385 5.1818 1.9159 7.71 3.0301 2.4703 1.09 4.9118 2.2412 7.3113 3.4804 2.5126 1.2338 4.993 2.5287 7.3757 4.0016 2.1684 1.3371 4.3125 2.7182 6.3117 4.3018 1.7321 1.369 3.4194 2.791 4.9894 4.3457 1.5648 1.5513 3.1084 3.1247 4.5937 4.7527 1.2522 1.4084 2.4548 2.8648 3.5965 4.3639 1.0936 1.5674 2.1805 3.139 3.2474 4.7248 1.0759 1.568 2.0893 3.1827 2.8864 4.9134 0.87489 1.7921 1.6669 3.6212 2.3715 5.4872 0.74385 1.9134 1.4934 3.8359 1.955 5.8411 0.36425 1.7748 0.61678 3.571 0.82593 5.3704 0.23304 1.9151 0.51542 3.8248 0.6932 5.7461 0.20225 2.0921 0.37505 4.1853 0.49284 6.284 0.14814 2.123 0.27534 4.2464 0.28478 6.3756 0.015 2.0003-0.0713 3.9997-0.12539 5.9989-0.0687 1.9632-0.14385 3.9263-0.25331 5.8878-0.10842 1.9189-0.23351 3.837-0.41702 5.7504-0.17305 1.7768-0.3738 3.5518-0.68423 5.3107-0.29116 1.6317-0.6311 3.2526-1.0332 4.8609-0.31571 1.4819-0.64887 2.9607-0.99413 4.4359-0.38523 1.4509-0.83019 2.8838-1.3579 4.2898-0.49091 1.4456-1.0534 2.8648-1.5496 4.3085-0.53559 1.4587-1.0526 2.9241-1.5857 4.3838-0.50367 1.3964-0.92224 2.8225-1.3341 4.2483-0.38862 1.4034-0.73589 2.8186-1.022 4.2466-0.30323 1.4431-0.55936 2.8961-0.86838 4.3383-0.24311 1.5124-0.49192 3.0236-0.59315 4.5543-0.0988 1.7362-0.23145 3.4729-0.2228 5.2128-6e-3 1.7612-0.0129 3.5224-0.0245 5.2836-0.0107 1.6424-0.0234 3.2847-0.0412 4.927-0.0193 1.703-0.0371 3.4063-0.0917 5.1086-0.0666 1.5779-0.21148 3.1488-0.5061 4.7025-0.25059 1.3739-0.54164 2.7398-0.90529 4.0888-0.34768 1.3906-0.61576 2.8036-1.087 4.1611-0.46763 1.3542-0.99802 2.6903-1.7371 3.9231-0.75459 1.2244-1.6059 2.3815-2.6241 3.403-1.1947 1.133-2.5691 1.9972-4.0323 2.7532-1.3708 0.67295-2.7906 1.2484-4.2584 1.6751-1.5277 0.46892-3.0789 0.84532-4.6246 1.2492-1.5167 0.40117-3.0406 0.77519-4.5582 1.1727-1.5686 0.41977-3.1539 0.77513-4.7087 1.246-1.6834 0.51526-3.3634 1.0396-5.0608 1.508-1.5203 0.40986-3.0316 0.85131-4.5557 1.2468-1.5512 0.45313-3.0811 0.98107-4.6557 1.3511-1.5655 0.4176-3.1285 0.84486-4.6898 1.2776-1.5817 0.4486-3.1682 0.88023-4.7465 1.3412-1.5916 0.46381-3.1749 0.95787-4.7871 1.3479-1.651 0.44382-3.3146 0.84169-4.9923 1.1718-1.7704 0.37743-3.5303 0.80003-5.2941 1.2068-1.8339 0.41105-3.6802 0.77032-5.5244 1.1318-1.8035 0.34681-3.6145 0.64669-5.4409 0.84684-1.6619 0.19968-3.3324 0.35871-5.0045 0.43628-1.6171 0.0554-3.2327 0.0266-4.8498-0.0236-1.5813-0.0404-3.1626-0.0857-4.7431-0.14965-1.6125-0.0668-3.2247-0.1415-4.8352-0.2464-1.6641-0.11057-3.3274-0.23467-4.9866-0.40575-1.7474-0.18358-3.4929-0.38954-5.2285-0.66581-1.8071-0.29189-3.6063-0.62591-5.397-1.0069-1.7884-0.32625-3.5619-0.72389-5.351-1.045-1.8685-0.31263-3.7459-0.58056-5.6258-0.81479-1.9949-0.24899-3.9861-0.54243-5.9955-0.64959-2.1481-0.10886-4.2959-0.22742-6.4412-0.38349-2.1161-0.15287-4.2324-0.27795-6.3536-0.33603-2.1754-0.099-4.3504-0.20891-6.5225-0.36672-2.4312-0.17413-4.8613-0.3662-7.2872-0.6036-2.7107-0.26867-5.4258-0.53437-8.112-0.99457-2.3298-0.44287-4.6473-0.95157-6.9274-1.6081-2.2057-0.64797-4.4037-1.3219-6.5621-2.1162-1.8382-0.69157-3.6465-1.4511-5.3063-2.5155-1.651-1.0557-3.2193-2.2314-4.6279-3.5994-1.4865-1.4152-3.0297-2.8169-4.056-4.6214-0.85077-1.5639-1.558-3.2008-1.7983-4.9818-0.10757-1.4968-0.11874-2.9992-0.0215-4.4972 0.0734-1.506 0.16425-3.011 0.23181-4.5172 0.0412-1.6724-0.0107-3.3508-0.1724-5.0161-0.18787-1.896-0.39794-3.7901-0.6736-5.6756-0.31395-2.1181-0.66145-4.232-1.1095-6.3264-0.51792-2.3648-1.1134-4.7123-1.8191-7.0286-0.84229-2.7441-1.7486-5.4683-2.7079-8.1738-0.96008-2.6226-1.9768-5.2228-2.982-7.8281-1.1423-3.0356-2.2503-6.0841-3.4307-9.1054-1.1496-3.0993-2.362-6.1753-3.4622-9.2927-0.91703-2.7507-1.7539-5.5298-2.4827-8.3365-0.73586-2.7741-1.3475-5.5841-1.6545-8.4416-0.28972-2.9891-0.48388-5.9924-0.38604-8.9971 0.16081-3.5024 0.50273-6.9878 1.0297-10.455 0.57481-3.8426 1.2953-7.6606 2.3486-11.405 0.94806-3.3999 2.0805-6.7281 3.7243-9.865 1.5962-3.1753 3.2386-6.3314 5.1679-9.3208 1.8633-2.8234 3.903-5.5019 6.1178-8.0613 1.9844-2.3552 4.0799-4.615 6.3103-6.7406 2.3555-2.2233 4.7233-4.434 7.1801-6.546 2.2894-1.9099 4.6781-3.6818 7.1361-5.3697 1.6612-1.137 3.3255-2.279 5.1041-3.2283 0.85958-0.46812 1.7464-0.88105 2.6403-1.2794l-0.59856 0.47877z" fill="none" stroke="#000" stroke-linecap="round" stroke-linejoin="round" stroke-width=".85882"/>
  <path d="m134.35 765.39c0.5408-0.62035 1.0862-1.237 1.6165-1.8663 0.85292-0.98591 1.6925-1.9818 2.5076-2.9995 0.85543-1.0872 1.6191-2.2393 2.38-3.3933 0.8982-1.3089 1.745-2.6513 2.6052-3.9852 0.98997-1.6131 2.067-3.1698 3.1652-4.7104 1.12-1.5479 2.3808-2.9848 3.6243-4.4327 1.269-1.446 2.6122-2.8244 3.9734-4.183 1.2524-1.2017 2.5218-2.3839 3.8789-3.467 1.5453-1.1905 3.2321-2.1904 4.9913-3.0292 2.3166-0.83868 4.7618-1.2371 7.1804-1.6603 2.4493-0.42016 4.9106-0.76905 7.3865-0.98421 2.3628-0.21731 4.7344-0.13269 7.1-0.0281 2.3637 0.0371 4.7068 0.2908 7.0438 0.62606 2.3503 0.30156 4.6806 0.7221 6.9952 1.2266 2.2085 0.47001 4.3708 1.1254 6.5533 1.6995 2.2875 0.60554 4.5308 1.3544 6.7711 2.1119 2.7113 0.97683 5.4403 1.9003 8.1958 2.7443 2.4536 0.77464 4.958 1.3443 7.4874 1.8019 2.516 0.43824 5.0469 0.78228 7.5807 1.098 2.1809 0.25638 4.3634 0.51254 6.5564 0.63772 2.0015 0.094 4.0036 0.12882 6.0063 0.0715 2.0874-0.0107 4.1606-0.21928 6.2256-0.50681 2.1884-0.28408 4.3571-0.68317 6.5207-1.1123 2.1382-0.43989 4.2524-0.9791 6.3588-1.5491 2.0386-0.53836 4.0448-1.1803 6.0451-1.844 1.8344-0.56817 3.6315-1.2452 5.4232-1.9338 1.7299-0.62239 3.4181-1.3487 5.1067-2.0733 1.6489-0.6902 3.2857-1.409 4.9276-2.1158 1.6675-0.67435 3.2911-1.4499 4.9439-2.1585 1.4732-0.63735 2.8975-1.3766 4.3317-2.0954 1.3699-0.68729 2.7051-1.4392 4.0903-2.0956 1.2585-0.67024 2.5631-1.2381 3.9018-1.7259 1.493-0.51048 3.0404-0.83035 4.592-1.1002 1.7692-0.30147 3.564-0.41134 5.3561-0.36292 2.3504 0.13934 4.6496 0.72695 6.8956 1.4037 2.4712 0.76315 4.8783 1.6941 7.2267 2.7744 2.3254 1.1122 4.5219 2.4649 6.6968 3.8422 1.9891 1.2855 3.8959 2.6919 5.7497 4.1646 1.7924 1.4223 3.4476 3.0009 5.0611 4.6198 1.4782 1.5142 2.8968 3.0831 4.2878 4.6774 1.1399 1.3906 2.2296 2.8225 3.3238 4.2493 0.94836 1.2361 1.6977 2.6049 2.464 3.9566 0.48058 0.84234 0.87203 1.7286 1.2437 2.6227l-0.66789 0.37415c-0.37011-0.89139-0.76002-1.775-1.239-2.6146-0.76452-1.3488-1.5119-2.7145-2.4585-3.9476-1.0934-1.4255-2.1816-2.8564-3.321-4.2453-1.3902-1.5927-2.8076-3.1605-4.285-4.6732-1.6118-1.6166-3.2657-3.1924-5.0565-4.6122-1.8526-1.4701-3.7573-2.8749-5.745-4.1578-2.1728-1.3749-4.3673-2.7253-6.6914-3.8336-2.3466-1.077-4.7518-2.005-7.2206-2.7656-2.2427-0.6716-4.5377-1.2569-6.8844-1.3866-1.7895-0.0423-3.5814 0.0704-5.3472 0.37522-1.5493 0.27312-3.0947 0.59456-4.5839 1.1111-1.3366 0.49164-2.6377 1.0652-3.8974 1.7314-1.3832 0.66001-2.7188 1.4112-4.0893 2.0969-1.4338 0.71995-2.8604 1.4556-4.3344 2.0917-1.6518 0.71074-3.2767 1.4832-4.9437 2.1585-1.6416 0.70754-3.279 1.425-4.9277 2.1158-1.6886 0.72528-3.379 1.4468-5.1084 2.071-1.7921 0.68862-3.591 1.3614-5.4253 1.931-2.0006 0.66426-4.0089 1.3011-6.0476 1.8405-2.1073 0.56966-4.2229 1.1063-6.362 1.5449-2.1644 0.429-4.3345 0.824-6.5234 1.1088-2.067 0.28453-4.142 0.489-6.2308 0.50023-2.004 0.0554-4.0075 0.0193-6.0101-0.0769-2.1937-0.12925-4.3773-0.38398-6.5591-0.64197-2.5346-0.31673-5.0663-0.66175-7.5829-1.1016-2.5312-0.45999-5.0371-1.0336-7.4925-1.8093-2.7556-0.84554-5.4846-1.7707-8.1969-2.7462-2.2393-0.75664-4.4821-1.5029-6.7686-2.1072-2.1813-0.57483-4.3432-1.2287-6.5513-1.6968-2.3138-0.50194-4.643-0.92053-6.992-1.2221-2.3357-0.33359-4.6778-0.58093-7.0396-0.61984-2.3637-0.10349-4.7333-0.18357-7.0939 0.0361-2.4744 0.21907-4.9346 0.56786-7.3825 0.98941-2.4154 0.42428-4.8604 0.82085-7.1682 1.6773-1.3028 0.6281-2.5508 1.3519-3.6825 2.2673-1.3599 1.0784-2.6285 2.2599-3.8823 3.4591-1.3625 1.3563-2.7044 2.7347-3.9757 4.1776-1.2423 1.4476-2.5053 2.8811-3.6271 4.4264-1.0982 1.5397-2.1782 3.0937-3.1665 4.707-0.86048 1.3338-1.7053 2.6774-2.6046 3.9857-0.7601 1.156-1.524 2.3094-2.3771 3.3998-0.81327 1.0195-1.6529 2.0158-2.5068 3.0012-0.5278 0.63016-1.0705 1.249-1.6175 1.8622l-0.70398 0.30335z" fill="none" stroke="#000" stroke-linecap="round" stroke-linejoin="round" stroke-width=".85882"/>
  <path d="m275.4 816.57c0.70966 0.31312 1.3864 0.693 2.0665 1.065 1.3808 0.75313 2.7753 1.482 4.1936 2.1619 1.4709 0.71427 3.029 1.209 4.5729 1.734 1.503 0.5276 3.0399 0.94499 4.5891 1.3111 1.5674 0.3682 3.1604 0.60575 4.7544 0.82232 1.573 0.19903 3.1588 0.13011 4.7385 0.0852 1.4813-0.0627 2.9458-0.27459 4.409-0.499 1.3391-0.15631 2.6369-0.51864 3.937-0.85934 1.2191-0.38626 2.4462-0.74501 3.6688-1.1196 1.2163-0.40548 2.4071-0.87832 3.6089-1.3233 1.2072-0.42104 2.3558-0.9674 3.4616-1.606 0.6255-0.34722 1.3898-0.97631 2.2528-1.6451 0.89885-0.69556 1.6315-1.5706 2.4027-2.3983 0.52594-0.54029 0.96102-1.1522 1.3708-1.7818l0.70117-0.30798c-0.4071 0.63412-0.8389 1.2513-1.3655 1.7944-0.77433 0.82681-1.5022 1.7081-2.398 2.4097-1.1366 0.8786-2.2658 1.7637-3.5591 2.4108-1.11 0.6327-2.2612 1.1755-3.4694 1.596-1.2014 0.44717-2.3939 0.91736-3.6116 1.3198-1.2229 0.37499-2.4499 0.73531-3.6707 1.1171-1.3011 0.34154-2.6018 0.69563-3.9417 0.8529-1.4647 0.22426-2.9317 0.43154-4.4145 0.49129-1.5823 0.0442-3.1708 0.10929-4.7458-0.0955-1.5956-0.21808-3.19-0.45782-4.7587-0.82838-1.5506-0.36844-3.0885-0.78855-4.5932-1.3171-1.5466-0.52495-3.1055-1.0252-4.578-1.7417-1.4188-0.68195-2.8144-1.4112-4.1963-2.165-0.67787-0.37044-1.3528-0.74894-2.062-1.0569l0.63684-0.42666z" fill="none" stroke="#000" stroke-linecap="round" stroke-linejoin="round" stroke-width="5.153"/>
  <path d="m166.8 815.6c0.67475 0.38259 1.3101 0.82829 1.9495 1.2665 1.2985 0.88755 2.613 1.7523 3.9562 2.5708 1.392 0.85791 2.8928 1.5062 4.3764 2.183 1.4427 0.67538 2.93 1.2445 4.4348 1.7638 1.5227 0.52324 3.0838 0.91903 4.6482 1.2941 1.5452 0.35549 3.13 0.44562 4.7062 0.55909 1.4801 0.0859 2.9585 0.0217 4.4368-0.0552 1.348-0.0215 2.6756-0.25213 4.0032-0.46097 1.2516-0.26231 2.5085-0.49645 3.7624-0.74675 1.2508-0.28169 2.4829-0.63298 3.7232-0.95544 1.2432-0.2981 2.4408-0.72674 3.6049-1.2514 0.65711-0.28285 1.4805-0.83231 2.4061-1.4113 0.96396-0.6021 1.7805-1.3994 2.6306-2.1458 0.57739-0.48493 1.0715-1.0502 1.5423-1.6357l0.72848-0.23624c-0.46854 0.59018-0.95993 1.1611-1.5382 1.6487-0.85322 0.74516-1.6656 1.5492-2.6272 2.1576-1.2189 0.76041-2.4309 1.528-3.7826 2.0425-1.1678 0.51841-2.3675 0.94329-3.6118 1.2408-1.2401 0.32467-2.4736 0.67314-3.7255 0.95168-1.2542 0.25069-2.5112 0.4864-3.7641 0.74406-1.3287 0.20956-2.6583 0.43174-4.0072 0.45409-1.4798 0.0764-2.9601 0.13591-4.4415 0.047-1.5788-0.11444-3.1658-0.2087-4.7124-0.57009-1.5658-0.37668-3.1282-0.77479-4.6519-1.3005-1.5059-0.52178-2.9941-1.0937-4.4383-1.7702-1.4863-0.67712-2.9873-1.3309-4.3807-2.1911-1.3434-0.82052-2.659-1.6858-3.9585-2.5742-0.63738-0.43643-1.271-0.88057-1.9459-1.258l0.67635-0.36079z" fill="none" stroke="#000" stroke-linecap="round" stroke-linejoin="round" stroke-width="5.153"/>
  <path d="m229.37 854.18c0.79757 0.64172 1.6013 1.2744 2.4221 1.8868 1.1378 0.85361 2.3324 1.6196 3.5668 2.325 1.3653 0.75399 2.7389 1.4842 4.1684 2.1094 1.2943 0.61955 2.6271 1.151 3.9468 1.7127 1.3665 0.62052 2.8152 0.9843 4.2748 1.3043 1.5005 0.34234 3.0333 0.48167 4.5696 0.4547 1.2682-0.0247 2.5191-0.25144 3.7376-0.5922l0.56597-0.16747c0.74355-0.24324 1.4233-0.59517 2.1106-0.96311 0.0528-0.0281-0.10628 0.055-0.15952 0.0824 0.98208-0.56698 1.8802-1.2667 2.788-1.9436 0.94638-0.6524 1.8037-1.4197 2.6402-2.2049 0.87037-0.75709 1.63-1.6272 2.4225-2.4624 0.65062-0.68447 1.2887-1.3732 1.8577-2.1276l0.70329-0.3031c-0.56543 0.75944-1.2017 1.4508-1.8543 2.1358-0.79515 0.83336-1.5491 1.7098-2.4209 2.4662-0.83388 0.78892-1.6903 1.5597-2.6369 2.2129-0.90585 0.68029-1.8066 1.3781-2.7851 1.9511-1.2241 0.7146-2.4457 1.4536-3.8389 1.79-1.2237 0.33312-2.4774 0.55731-3.7491 0.57651-1.5402 0.0193-3.076-0.12346-4.5797-0.46928-1.4628-0.32301-2.9135-0.69325-4.283-1.316-1.3198-0.56208-2.6524-1.0942-3.9471-1.7134-1.4305-0.62845-2.8059-1.3606-4.1728-2.1163-1.2359-0.70842-2.4324-1.477-3.5721-2.3327-0.82078-0.61264-1.6234-1.247-2.4229-1.8865l0.64784-0.40976z" fill="none" stroke="#000" stroke-linecap="round" stroke-linejoin="round" stroke-width="3.8647"/>
  <path d="m211.79 675.25c-0.45138-0.57193-0.7665-1.2367-1.0657-1.9153-0.4468-1.102-0.82821-2.2353-1.1513-3.3903-0.34336-1.3067-0.57763-2.6475-0.70475-4.0036-0.1211-1.4244-0.0376-2.8597 0.11787-4.2805 0.16725-1.4548 0.50842-2.8789 0.92549-4.2718 0.3886-1.4086 1.0153-2.7106 1.6895-3.9762 0.72792-1.3858 1.71-2.556 2.7497-3.6591 1.1295-1.1923 2.3884-2.2149 3.6862-3.1662 1.3694-1.0918 2.8776-1.9227 4.3803-2.7545 1.8094-1.0922 3.7149-1.9406 5.6334-2.752 1.7555-0.73876 3.5606-1.3097 5.3588-1.897 1.7796-0.61688 3.6107-0.96968 5.4472-1.2715 1.8401-0.29217 3.6904-0.4794 5.5417-0.63439 1.7114-0.13892 3.4255-0.21106 5.1395-0.26231 1.7256-0.12925 3.4218 0.19903 5.1109 0.50668 1.7163 0.28627 3.4203 0.63736 5.122 1.0078 1.628 0.31523 3.2355 0.73327 4.8502 1.116 1.547 0.3107 3.0504 0.80759 4.555 1.2947 1.4623 0.51478 2.9311 1.0034 4.3605 1.6202 1.299 0.53028 2.5562 1.1618 3.7962 1.8374 1.2857 0.7423 2.515 1.5887 3.702 2.5069 1.1898 0.83832 2.3118 1.7745 3.4038 2.7585 0.99834 0.89758 1.9104 1.8887 2.7415 2.9738 0.84499 1.0125 1.5299 2.1654 2.2063 3.3187 0.72542 1.063 1.271 2.2433 1.791 3.4403 0.55898 1.2711 0.94107 2.6213 1.2619 3.9889 0.31081 1.4244 0.52723 2.8747 0.63503 4.338 0.0895 1.3326-0.0285 2.6684-0.21384 3.9885-0.15824 1.1955-0.60137 2.2874-1.0364 3.3854-0.41518 1.056-0.9747 2.0181-1.6018 2.9344-0.66832 0.93546-1.479 1.7365-2.3243 2.4703l-0.44837 0.34387-0.71147 0.25872 0.44968-0.33913c0.84749-0.72521 1.6574-1.5235 2.3305-2.4499 0.63014-0.90873 1.1907-1.8652 1.608-2.9158 0.43257-1.093 0.88343-2.1754 1.0436-3.3655 0.18658-1.314 0.308-2.6436 0.22076-3.9707-0.10499-1.459-0.32131-2.9048-0.62977-4.325-0.31886-1.3627-0.69887-2.7082-1.2559-3.9745-0.51869-1.194-1.0634-2.3706-1.7868-3.431-0.67512-1.1502-1.3589-2.2997-2.2021-3.3095-0.82952-1.0803-1.7398-2.0667-2.7352-2.9606-1.0908-0.98282-2.2142-1.9139-3.4011-2.7533-1.1857-0.91401-2.4123-1.7586-3.6967-2.4961-1.2386-0.67426-2.496-1.3007-3.7929-1.8314-1.4292-0.61238-2.8961-1.1018-4.3574-1.6142-1.5033-0.48693-3.0067-0.97818-4.5522-1.2896-1.6143-0.38332-3.222-0.79873-4.8495-1.1148-1.7012-0.37026-3.4053-0.718-5.1208-1.0057-1.6869-0.30596-3.3807-0.62458-5.1036-0.49346-1.7133 0.0522-3.4267 0.12539-5.1374 0.26561-1.8504 0.15631-3.6997 0.34501-5.5387 0.63927-1.835 0.30423-3.6637 0.6632-5.4416 1.2811-1.7974 0.58812-3.6017 1.16-5.3555 1.9023-1.4551 0.61674-2.9193 1.2274-4.3021 2.0326-1.5029 0.82924-3.0138 1.654-4.3828 2.745-1.2998 0.94468-2.5584 1.9653-3.6903 3.152-1.041 1.0956-2.026 2.258-2.7564 3.6375-0.67644 1.2591-1.3051 2.5562-1.6951 3.9597-0.42007 1.387-0.761 2.8068-0.93103 4.2564-0.15845 1.4147-0.2421 2.8447-0.12453 4.2635 0.12389 1.3512 0.35794 2.6868 0.69876 3.9888 0.32142 1.1512 0.70151 2.2807 1.1466 3.3789 0.29821 0.67605 0.61404 1.3357 1.0624 1.9066l-0.66928 0.37679z" fill="none" stroke="#000" stroke-linecap="round" stroke-linejoin="round" stroke-width=".88016"/>
  <path d="m284.96 679.22c-6.9887-1.5623-9.4565-1.9781-15.001-2.5275-1.3443-0.13312-3.8676-0.38933-5.6073-0.56914-7.5816-0.78366-12.292-0.95407-30.576-1.1063-12.681-0.10563-16.932-0.0331-20.608 0.35165-0.5668 0.0593-0.57269 0.0575-0.40736-0.12861 0.23512-0.26463 0.21041-0.47375-0.11573-0.9822-0.71884-1.1202-1.6243-3.5225-2.0754-5.506-0.82073-3.609-0.76139-6.7003 0.19904-10.364 0.4684-1.7867 0.84394-2.7933 1.5965-4.2792 0.87602-1.7296 1.6026-2.7337 3.088-4.2673 1.247-1.2876 3.4645-3.1102 4.9999-4.1096 1.05-0.68345 3.7534-2.1969 4.7446-2.6562 2.5827-1.1966 6.9121-2.784 9.3455-3.4265 3.3962-0.89672 8.2053-1.4775 13.946-1.6843 1.971-0.0711 2.8394 0.0107 5.799 0.54499 9.1398 1.6502 15.668 3.533 20.514 5.9162 1.9448 0.95658 3.2742 1.7975 5.558 3.5159 3.7705 2.8371 5.5316 4.7198 7.636 8.1632 2.2702 3.7146 3.2804 6.6051 3.7753 10.801 0.24183 2.0508 0.10435 4.5795-0.33421 6.1466-0.69009 2.4659-2.3577 5.393-3.6966 6.4884l-0.28756 0.23525-2.4921-0.55712z" fill="#666"/>
  <path d="m133.81 762.13c0.2689-8.557 2.0552-18.615 4.6088-25.952 1.0594-3.0435 3.3872-7.868 5.7627-11.943 3.9102-6.708 9.5048-13.429 16.585-19.926 6.2135-5.701 11.724-9.8622 16.404-12.387 1.7501-0.94423 2.5838-1.5472 2.5838-1.8688 0-0.26113-0.11895-0.51545-0.26418-0.56515s-0.18744-0.38246-0.0938-0.73947c0.13934-0.53017 1.3175-1.2075 6.4319-3.6976 16.799-8.1793 19.998-8.7173 50.181-8.4401 9.543 0.0876 19.12 0.28857 21.282 0.44653 5.2645 0.38464 13.844 1.2744 17.351 1.7995 3.8011 0.5691 11.464 2.2307 11.647 2.5254 0.0803 0.12925 0.57295 0.23806 1.0948 0.24158 1.2379 9e-3 8.4744 1.8802 13.962 3.6115 5.8309 1.8396 9.9118 3.4962 16.466 6.6845 11.055 5.3776 16.053 8.9 23 16.21 3.5808 3.7682 5.3208 5.9331 8.0416 10.006 3.2637 4.885 5.9757 10.655 7.3852 15.714 0.57664 2.0694 1.7616 10.451 2.0328 14.379 0.0928 1.342 0.23564 2.928 0.31772 3.5244l0.14923 1.0844-0.87639-1.6266c-1.7959-3.3333-4.9529-7.4051-9.2057-11.873-6.9555-7.3075-15.616-13.001-24.192-15.904-4.7915-1.6222-7.0365-2.0022-10.901-1.8452-5.074 0.20612-7.393 0.89887-14.095 4.2102-13.816 6.8263-25.798 11.49-35.782 13.928-10.933 2.6698-18.449 2.9855-30.796 1.2934-7.4694-1.0237-8.3414-1.2392-18.571-4.5877-14.841-4.8582-22.076-6.2728-32.262-6.3081-4.32-0.015-6.2212 0.10392-9.3532 0.58499-10.272 1.5777-12.545 2.628-18.791 8.6836-4.3414 4.2092-6.9519 7.4518-11.54 14.334-2.1153 3.1731-4.8387 6.95-6.052 8.393s-2.3052 2.9948-2.4264 3.4483c-0.12453 0.46613-0.16232-1.0284-0.0865-3.4379z" fill="#666" stroke="#666" stroke-linecap="round" stroke-linejoin="round" stroke-width=".0282"/>
 </g>
 <g transform="translate(0 -552.36)">
  <path d="m141.82 803.05c-1.147-0.69536-2.3603-1.2699-3.6097-1.754-1.2087-0.48363-2.4402-0.70478-3.7314-0.55581-1.3128 0.31596-1.276 0.3184-2.0827 1.0412-0.76899 0.7463-1.27 1.6882-1.7064 2.6532-0.4724 1.0985-0.77114 2.2578-1.0363 3.4204-0.29029 1.2796-0.47579 2.5746-0.56109 3.8829-0.0247 1.2847 0.0507 2.5675 0.19409 3.8434 0.17799 1.3447 0.5954 2.635 1.0668 3.9012 0.59664 1.5251 1.3115 2.9928 2.088 4.4326 0.74029 1.3945 1.6491 2.6865 2.5442 3.9834 0.81399 1.1511 1.6845 2.2593 2.5475 3.3736 0.94948 1.073 1.9161 2.1292 2.8681 3.1999 0.92537 1.0162 1.6636 2.1781 2.4077 3.3281 0.725 1.1182 1.2555 2.3393 1.7184 3.5841 0.48495 1.325 0.78979 2.7022 1.0594 4.0839 0.28794 1.5786 0.24695 3.1801 0.16575 4.774-0.10971 1.7198-0.43435 3.4131-0.714 5.1104-0.26287 1.556-0.51904 3.1094-0.40498 4.6894 0.18958 1.5003 0.8267 2.8936 1.5509 4.2052 0.68034 1.1597 1.4988 2.206 2.4724 3.1302 0.71239 0.65067 1.5337 1.12 2.4878 1.2776 0.0427 0.28291 1.384-0.38899 1.2432-0.33986-0.13226 0.0462-0.23062 0.21406-0.36987 0.19924-0.11552-0.0129 0.18593-0.13934 0.2789-0.2089 0.63864-0.52498 1.0141-1.2523 1.3406-1.9946 0.37548-0.88784 0.49977-1.8495 0.62205-2.7978 0.0792-0.70908 0.0417-0.35134 0.11229-1.0732l0.68573-0.34106c-0.07 0.7232-0.0328 0.36477-0.11122 1.0753-0.12109 0.95382-0.24275 1.9218-0.61264 2.8173-0.32324 0.75033-0.694 1.4881-1.3251 2.0303-0.7258 0.56472-1.5393 1.1381-2.4915 1.0728-0.96201-0.17842-1.7929-0.65352-2.5121-1.3154-0.97711-0.93137-1.8002-1.9841-2.4842-3.1504-0.72945-1.321-1.3707-2.7242-1.5667-4.2341-0.12131-1.5854 0.13204-3.1441 0.3969-4.7057 0.27895-1.6951 0.6053-3.3856 0.71789-5.1028 0.0822-1.5882 0.12711-3.1838-0.15738-4.7573-0.26797-1.3778-0.57066-2.7514-1.0535-4.0728-0.46018-1.2399-0.98787-2.4561-1.7101-3.5696-0.74214-1.1467-1.4783-2.3053-2.4017-3.3181-0.95286-1.0723-1.9219-2.1286-2.8708-3.2043-0.86396-1.1152-1.7348-2.2249-2.5495-3.3773-0.89665-1.2992-1.8065-2.5938-2.5483-3.9907-0.77818-1.4429-1.4947-2.9137-2.0933-4.4418-0.47424-1.2716-0.89425-2.5673-1.0758-3.9176-0.14514-1.28-0.22149-2.5665-0.20011-3.8555 0.0831-1.3118 0.26551-2.6105 0.55564-3.8938 0.26388-1.1666 0.56107-2.33 1.0298-3.4341 0.43365-0.97227 0.93097-1.9224 1.6938-2.6821 0.95677-0.881 2.112-1.5671 3.4064-1.7877 1.2989-0.13312 2.539 0.0988 3.7524 0.58593 1.2515 0.48927 2.4675 1.0666 3.6176 1.7643l-0.64356 0.41641z" fill="none" stroke="#000" stroke-linecap="round" stroke-linejoin="round" stroke-width=".85882"/>
  <path d="m354.04 799.44c1.1044-0.8087 2.2825-1.5042 3.5022-2.1134 1.179-0.60461 2.397-0.95074 3.6973-0.93519 1.3322 0.17928 1.2955 0.1855 2.1465 0.82093 0.81473 0.66269 1.3734 1.5472 1.869 2.4614 0.53971 1.0432 0.9095 2.1645 1.2459 3.2925 0.36869 1.2417 0.63355 2.5096 0.79903 3.8009 0.10349 1.2741 0.10671 2.5565 0.0414 3.8392-0.0956 1.3545-0.43392 2.6796-0.8277 3.9862-0.50318 1.5767-1.1281 3.1086-1.8164 4.619-0.65483 1.4617-1.4844 2.8388-2.3001 4.2194-0.74344 1.2274-1.5461 2.418-2.3407 3.6137-0.88373 1.1636-1.7856 2.3124-2.672 3.4741-0.86309 1.1048-1.5301 2.3351-2.2038 3.5542-0.65647 1.1856-1.1121 2.4534-1.4987 3.7379-0.40377 1.3664-0.62421 2.7662-0.8091 4.1669-0.1913 1.5982-0.0522 3.1854 0.12689 4.761 0.21512 1.6977 0.6435 3.3471 1.0272 5.005 0.35822 1.5193 0.70956 3.0366 0.69234 4.6184-0.0977 1.5103-0.6494 2.9602-1.2932 4.3379-0.60927 1.2222-1.3636 2.3459-2.2805 3.3642-0.67252 0.71968-1.4651 1.2703-2.4095 1.5248-0.0253 0.28552-1.4078-0.24452-1.2641-0.21019s0.24374 0.18915 0.38209 0.15995c0.11466-0.0247-0.19452-0.11937-0.2917-0.17906-0.67082-0.45614-1.0909-1.1404-1.4628-1.8445-0.42989-0.84371-0.61312-1.7866-0.79349-2.7164-0.1226-0.6965-0.0631-0.34486-0.17799-1.055l-0.70664-0.26855c0.11422 0.71147 0.0552 0.3591 0.17713 1.0572 0.17949 0.93539 0.36051 1.8848 0.78529 2.7368 0.36923 0.71244 0.78518 1.4075 1.4495 1.8816 0.7604 0.48669 1.609 0.97302 2.5573 0.8104 0.95108-0.276 1.7528-0.83338 2.4315-1.5649 0.92004-1.0258 1.6786-2.1564 2.2911-3.3855 0.6485-1.3875 1.2038-2.8477 1.3072-4.3683 0.024-1.5879-0.3247-3.1108-0.68526-4.6354-0.38282-1.6558-0.81277-3.3022-1.0306-4.997-0.17949-1.5697-0.32221-3.1507-0.13419-4.7435 0.18357-1.3967 0.40206-2.7926 0.80392-4.1553 0.3842-1.2793 0.83736-2.542 1.4913-3.7226 0.67186-1.2156 1.337-2.4425 2.1984-3.5437 0.88716-1.1633 1.7915-2.3124 2.6745-3.4788 0.79562-1.1968 1.5985-2.3889 2.3426-3.6176 0.81705-1.383 1.6476-2.7629 2.3038-4.2271 0.68976-1.5137 1.3161-3.0487 1.8211-4.6286 0.39631-1.3122 0.73692-2.643 0.83577-4.0034 0.0668-1.2869 0.0642-2.5731-0.0361-3.8518-0.16339-1.2951-0.42546-2.5668-0.79424-3.8123-0.33535-1.1322-0.70385-2.2578-1.2402-3.3068-0.49322-0.92167-1.0488-1.8148-1.8582-2.4914-1.0108-0.77728-2.2081-1.3405-3.5159-1.4269-1.3071 1e-3 -2.533 0.35869-3.7165 0.96729-1.2215 0.6146-2.4022 1.3131-3.5095 2.1244l0.66909 0.34774z" fill="none" stroke="#000" stroke-linecap="round" stroke-linejoin="round" stroke-width=".85882"/>
  <path d="m347.57 863.88c-0.41865-0.50447-0.9989-1.8642-1.2894-3.0216s-0.84799-2.1044-1.2388-2.1044c-0.40974 0-0.37734-0.62284 0.0764-1.4709 2.2025-4.1153 3.2583-11.239 3.8734-26.134 0.63158-15.295 1.3677-20.149 4.2579-28.074 0.88394-2.4239 1.8319-3.4604 4.1005-4.4834 3.8961-1.7569 5.3855-1.3535 7.0824 1.9184 3.6756 7.0872 2.2796 14.709-4.5584 24.888-6.6544 9.9056-7.356 11.583-7.3742 17.637-9e-3 2.9522 0.277 7.4837 0.63521 10.07 0.57937 4.183 0.4575 5.0471-1.1034 7.8243-1.9345 3.442-3.3032 4.3474-4.4617 2.9514z" fill="#ffe8c6"/>
  <path d="m148.53 865.59c-2.4186-2.8744-2.284-2.0804-2.3304-13.744-0.0438-11.013-0.61153-12.608-7.2649-20.403-5.9403-6.9601-8.7878-13.16-8.7327-19.013 0.0481-5.1168 1.7961-9.9769 3.8752-10.775 0.66902-0.25674 2.7177 0.14794 4.5526 0.89919 3.6406 1.4906 3.8381 1.8557 8.716 16.113 3.8844 11.354 4.9924 19.072 6.1716 42.989 0.10113 2.0512-1.5142 6.2923-2.3966 6.2923-0.3331 0-1.499-1.0617-2.5908-2.3593z" fill="#ffe8c6"/>
  <path d="m177.87318,690.7817c.11701-.19452.23886-.38602.3638-.57554 .18787-.24717.35214-.51051.51686-.77333 .16897-.28094.32983-.56648.49365-.85041l.0818-.14449 .17477-.0779-.0818.14471c-.16446.28367-.32442.56987-.49337.85101-.16425.2631-.32786.52713-.51663.77374-.12517.18915-.24691.38061-.36399.5747l-.1752.0777z" fill="#808080"/>
  <g transform="matrix(2.1471 0 0 2.1471 -485.73 -223.54)">
   <path d="m335.15906,514.48907c-.0275.38471-.10877.75866-.20017,1.13221-.14747.60132-.28309,1.20605-.4394,1.80515-.16895.62507-.36606,1.24232-.56319,1.859s-.39862,1.23556-.60941,1.84926-.45695,1.20487-.68516,1.8074c-.24728.60838-.49483,1.21697-.76016,1.81776-.26557.58254-.48121,1.18576-.73411,1.77362-.2525.59794-.50897,1.19413-.76571,1.79027-.28443.63298-.55921,1.27059-.81596,1.91534-.24887.62839-.47872,1.26399-.72033,1.89511-.22715.58595-.48283,1.16056-.72717,1.73957-.26574.6177-.54621,1.22878-.82305,1.84153-.28806.63123-.50562,1.28993-.69673,1.95585-.18022.66272-.32628,1.33502-.42013,2.0154-.0798.60438-.0632,1.21488-.0136,1.82067 .0532.53947.23871,1.04654.44507,1.54294 .22568.49995.53043.95262.88404,1.36944 .44762.50068.96532.92952 1.48382,1.35358 .51484.38593 1.04496.75247 1.5835,1.10469 .55658.34427 1.13669.6483 1.73288.91756 .79421.32654 1.60847.60528 2.42392.87418 .8752.27225 1.75786.52144 2.64396.75582 .85145.24048 1.70189.48689 2.57182.65124 .85806.12615 1.7218.16446 2.58536.09 .80178-.0773 1.55524-.36102 2.31018-.62169 .56275-.2017 1.1036-.45982 1.55517-.74875 .40275-.26318.77339-.57278.97038-1.0196 .0975-.3218-.0326-.59257-.22374-.84633-.27528-.31348-.62049-.53843-.99138-.72127-.49334-.20192-1.00031-.3717-1.50597-.54077-.57315-.17847-1.1433-.36786-1.70597-.57709-.58981-.22707-1.1674-.4814-1.7644-.69011-.61203-.1993-1.22464-.39602-1.83241-.60795-.55157-.20541-1.07226-.47874-1.54366-.83049l.30135-.19078c.46992.3482.98864.61871 1.53766.82147 .60781.21183 1.22078.40759 1.83245.608 .59673.20978 1.17437.46463 1.76475.69064 .56284.208 1.13256.3975 1.7054.57611 .50667.17015 1.01561.33883 1.50875.54483 .37425.18744.72318.41658 1.0003.73528 .19688.26319.33191.545.2411.87939-.18789.45582-.55662.77242-.96234,1.03929-.6828.44138-1.40082.82504-2.16871,1.09713-.75611.2611-1.51211.54088-2.3155.61461-.86558.0708-1.73158.0313-2.59098-.0979-.87003-.16695-1.72108-.41303-2.57323-.65333-.88646-.23509-1.76976-.48408-2.64513-.7576-.81629-.26976-1.63177-.5484-2.42624-.87719-.59713-.27099-1.17861-.57602-1.73591-.92217-.53915-.35338-1.0706-.72009-1.58551-1.10789-.51979-.4258-1.03892-.85619-1.48724-1.35908-.35561-.41991-.66216-.87583-.88964-1.37894-.20788-.49966-.39527-1.00986-.45033-1.55275-.0505-.60801-.0686-1.22078.0102-1.82763 .0922-.682.23866-1.35564.41793-2.02 .19037-.6674.40694-1.32775.69455-1.96055 .27636-.61273.55743-1.22331.82338-1.84069 .2438-.57897.49985-1.15313.72767-1.73854 .24297-.63067.47066-1.26728.72019-1.8955 .25592-.6453.53071-1.2832.81551-1.91624 .25638-.59629.51381-1.19208.76566-1.7903 .25457-.58726.46855-1.19122.73398-1.77392 .26663-.59973.51219-1.20872.76101-1.81597 .22736-.6026.48004-1.19571.68558-1.80644s.40766-1.23226.60978-1.84854 .39443-1.23287.56397-1.85728c.15771-.59853.29167-1.20358.43955-1.80458 .0911-.37138.17327-.74215.20367-1.12438l.31812-.16209z" fill="none" stroke="#000" stroke-linecap="round" stroke-linejoin="round" stroke-width=".4"/>
   <path d="m335.25387,542.31193c-.18131-.26617-.27939-.57503-.36971-.88094-.13354-.43863-.18213-.89099-.209-1.3464-.0227-.48923.008-.98192.0643-1.46811 .0707-.51457.13665-1.02907.23229-1.53967 .11372-.5453.17421-1.09945.26951-1.64773 .0988-.57664.219-1.14873.33831-1.72135 .12957-.61928.22135-1.24533.30204-1.87256 .0628-.65475.13893-1.30401.27196-1.94835 .12055-.62644.2597-1.24822.40308-1.86973 .11201-.59313.30543-1.16456.48763-1.73841 .11793-.35889.2641-.70647.41178-1.05376l.32404-.149c-.14757.34651-.29475.69276-.41324,1.05068-.18158.57327-.37758,1.14325-.4889,1.73584-.14311.62137-.28368,1.24261-.40343,1.86903-.13383.64349-.21221,1.29155-.27316,1.94588-.0803.62803-.17162,1.25492-.3008,1.87504-.119.57238-.24015,1.14393-.33877,1.72031-.0969.54811-.15518,1.10275-.26929,1.64811-.0961.50988-.16254,1.02352-.23334,1.53747-.0581.48407-.0879.97521-.0671,1.46251 .026.45291.0725.90288.20523,1.33918 .0887.30194.18448.60725.36361.86975l-.30703.18221z" fill="none" stroke="#000" stroke-linecap="round" stroke-linejoin="round" stroke-width=".4"/>
   <path d="m338.15183,524.99366c.37059-.14907.74117-.29504 1.11813-.4283 .80364-.29384 1.59576-.61664 2.40302-.90062 1.04043-.3466 2.055-.7614 3.06375-1.18975 .95845-.39106 1.89992-.82357 2.83362-1.27019 .65874-.30293 1.29655-.64823 1.93085-.99826 .63748-.3509 1.23796-.76166 1.83838-1.17117 .56149-.37688 1.09387-.79188 1.59472-1.24572 .47071-.43609.90568-.90164 1.28435-1.41961 .37862-.48881.70801-1.01122 1.0425-1.53015l.16269-.25934 .32629-.14387-.16248.25979c-.33557.5186-.66179,1.0436-1.04173,1.53196-.37682.52094-.81055.98863-1.28155,1.42634-.49999.45562-1.03089.87307-1.5929,1.25034-.60076.40927-1.19954.82306-1.83753,1.17356-.83026.48099-1.66993.94672-2.54223,1.3482-.93448.44527-1.87569.87829-2.83449,1.26886-1.00906.42826-2.02473.84084-3.06516,1.18804-.80692.28523-1.59914.60826-2.40334.90092-.37678.13351-.7465.28165-1.11753.42966l.28064-.22069z" fill="none" stroke="#000" stroke-linecap="round" stroke-linejoin="round" stroke-width=".4"/>
   <path d="m359.7712,513.29834c.0107.40536.0214.8107.0322,1.21605l.0517,1.94878c.0229.86517.0459,1.73032.0689,2.59549l.0744,2.80048c.0209.93565.0437,1.87048.10311,2.80431 .0576.90969.17205,1.81355.26811,2.71891 .07.85524.19027,1.70228.32821,2.54647 .13902.8508.31333,1.69342.46271,2.54197 .12369.81702.30877,1.61888.48622,2.42222 .16933.78188.35835,1.55775.52081,2.34163 .18339.7191.31888,1.45335.50751,2.17037 .18998.69784.4026,1.38791.63637,2.06819l.63568,1.88523c.21532.63794.40146,1.28705.59493,1.93366 .1576.57563.36122,1.13124.66394,1.62638 .22005.34663.53381.5524.86673.72383 .36787.16309.75607.21697 1.14608.235 .43059-.0006.85203-.0907 1.27304-.18011 .45802-.10304.88655-.3126 1.32143-.49837 .50826-.23504 1.02275-.45144 1.52883-.69271 .57217-.28371 1.16973-.49021 1.77051-.67782 .63051-.21052 1.27878-.31354 1.93504-.32517 .64025-.0171 1.26725.1197 1.88576.29949 .64934.19595 1.25342.52396 1.829.91719 .59654.39769 1.15571.85966 1.70566,1.33652 .47393.43013.92442.89329 1.32877,1.40933 .39006.47633.74996.98161 1.06934,1.52278 .31759.5521.54826,1.15815.7532,1.77361 .20439.64418.40048,1.29082.56946,1.94832 .17062.6768.29542,1.36658.40819,2.05829 .13126.70224.17274,1.41461.17608,2.12983 .0137.74143-.0677,1.47408-.18141,2.20067-.11268.69231-.31686,1.35381-.53847,2.00714-.22995.64007-.50798,1.25038-.83983,1.82703-.33133.57274-.69619,1.11043-1.12441,1.59046-.38312.46285-.82186.84847-1.2924,1.18485-.57392.42726-1.20685.72733-1.84281,1.00864-.63446.26809-1.29201.4509-1.95302.61018-.7351.16757-1.47757.28623-2.21541.43683-.73761.1574-1.47989.2825-2.22387.3943-.72752.10746-1.45753.19181-2.18804.26927-.72613.0578-1.44717.16933-2.16965.26563-.81755.10759-1.63792.18455-2.45847.25726-.80589.0704-1.61261.12892-2.41949.18377-.79604.053-1.59258.0959-2.3892.13665-.77013.0489-1.54208.0251-2.31196-.0284-.81684-.0449-1.6308-.13946-2.44581-.21645-.8235-.10185-1.64638-.2096-2.47089-.29949-.75747-.0817-1.51652-.13824-2.27589-.18646-.71387-.0442-1.4283-.0711-2.14278-.093-.68712-.0203-1.37438-.0295-2.0616-.0357-.6708-.005-1.34159-.004-2.01234-.0009-.66476.004-1.32949.0113-1.99418.0205-.71818.009-1.43627.024-2.15435.0382l-2.33724.0514-2.50593.0614-2.79674.0724-2.78282.073-2.4695.0655-2.3475.0632c-.73969.0376-1.47899.028-2.21908.004-.82034-.019-1.64012-.072-2.45836-.14598-.93209-.0836-1.86409-.16101-2.79059-.31122-.79204-.0982-1.55137-.35481-2.29872-.66332-.61463-.25939-1.19702-.59912-1.76022-.98177-.52597-.36832-.98645-.82974-1.43784-1.30715-.41684-.44252-.81609-.89875-1.14829-1.42883-.33402-.56173-.63669-1.14869-.92575-1.74223-.28474-.59031-.49491-1.22019-.6817-1.85786-.18666-.65473-.32031-1.32633-.44101-2.00005-.1211-.69209-.20993-1.39053-.29108-2.08976-.0764-.71347-.15418-1.42757-.18849-2.14526-.0213-.69075.0102-1.38423.0666-2.07151 .0379-.66549.20302-1.30134.39042-1.92675 .19818-.62853.50325-1.19436.85768-1.71907 .35379-.53017.79328-.96104 1.26645-1.34254 .59203-.47396 1.24955-.80545 1.91662-1.11072 .61476-.27654 1.25044-.48339 1.89016-.66907 .63122-.17935 1.27158-.31148 1.9134-.43094 .61398-.10599 1.22083-.25745 1.83213-.38133s1.22059-.21252 1.83379-.29483c.41439-.0548.82979-.099 1.24528-.14185l-.25352.22703c-.41533.043-.83056.0875-1.24478.14264-.61282.0827-1.22489.1741-1.83261.29652s-1.21824.27551-1.83238.38091c-.6413.12019-1.28111.25304-1.91166.43345-.63892.18677-1.27376.39487-1.88746.67287-.49292.22711-.99937.4612-1.37243.73216-.47424.37771-.91558.80451-1.27034,1.33248-.35607.52041-.66213,1.08279-.86228,1.70804-.18829.62259-.35542,1.25573-.39393,1.91892-.0579.68546-.0884,1.37752-.069,2.06663 .033.71688.11141,1.43004.18726,2.1427 .0808.69845.16934,1.3961.28996,2.08746 .12016.67235.25316,1.34263.43906,1.99611 .18581.63562.39491,1.26351.67858,1.85189 .28842.59231.59043,1.17809.92384,1.73859 .33116.52775.7296.98157 1.1447,1.42243 .44977.47571.90946.9345 1.43401,1.3006 .56221.38048 1.14329.71858 1.75662.97608 .74602.30704 1.50457.55911 2.29471.65721 .92621.14843 1.85775.22593 2.78937.30944 .81801.0729 1.63744.12575 2.4575.1444 .73975.024 1.47871.0316 2.21805-.005l2.3475-.0632 2.46943-.0654 2.78274-.073 2.79687-.0724 2.50599-.0614c.77908-.0183 1.5582-.0355 2.33733-.0513l2.15451-.0381c.66478-.008 1.3295-.0168 1.99434-.0203l2.01256.001 2.06197.0363c.71465.0222 1.42928.0494 2.14333.0939 .75959.0485 1.51889.10563 2.27659.18766 .82438.0903 1.6471.19867 2.47063.29915 .81485.0773 1.62872.17071 2.44543.21571 .76924.0526 1.54047.0747 2.30987.0255 .79655-.041 1.59299-.0841 2.38892-.13706 .80677-.055 1.61335-.11361 2.41911-.18424 .82032-.0729 1.64046-.15039 2.45776-.25845 .72258-.0967 1.4439-.20668 2.17014-.26495 .73027-.0777 1.46-.16241 2.18726-.27038 .74367-.11236 1.48559-.23831 2.22297-.3956 .73771-.15017 1.48016-.26831 2.21478-.43778 .66009-.16057 1.31678-.34452 1.94982-.61488 .45343-.20197.88415-.45031 1.3297-.66959 .014-.006-.0213.0249-.032.0373 .47171-.33297.91266-.71463 1.29517-1.1775 .43024-.47649.79604-1.01145 1.12731-1.58329s.61183-1.18185.84281-1.81991c.22226-.65117.4273-1.3105.54134-2.0007 .11418-.72461.19846-1.45502.18417-2.19467-.003-.71317-.0428-1.42363-.17325-2.12394-.11238-.69056-.23656-1.37925-.40656-2.05498-.16844-.65669-.36419-1.30244-.56819-1.94578-.20373-.61291-.43304-1.21652-.74929-1.76621-.31865-.5397-.67799-1.04328-1.06696-1.51843-.40336-.51388-.85268-.97519-1.32532-1.40339-.54904-.47609-1.10802-.93616-1.70358-1.33311-.57407-.39006-1.17642-.71528-1.82363-.90836-.61702-.17734-1.24242-.31091-1.88064-.29158-.65479.0158-1.3012.12132-1.93009.33238-.60006.1888-1.1965.39721-1.76799.68146-.50666.23997-1.02083.4578-1.52962.69176-.43529.18672-.86569.39325-1.32498.49338-.42226.0894-.84571.17681-1.27753.17352-.39282-.0205-.78407-.0785-1.15337-.24645-.33704-.17628-.65367-.38855-.87634-.74056-.30404-.49827-.51022-1.05634-.66851-1.63545-.19361-.64613-.37906-1.29508-.5944-1.93256-.20921-.6295-.42429-1.25632-.63548-1.8849-.23438-.68109-.44711-1.37218-.63767-2.07086-.18963-.71744-.32427-1.45276-.50848-2.17235-.16219-.78379-.35114-1.55945-.52055-2.34116-.1775-.80391-.36337-1.6062-.48699-2.42381-.14921-.84875-.32356-1.69155-.46291-2.54245-.13826-.84486-.25965-1.69249-.32924-2.54856-.0961-.90593-.21064-1.81031-.26883-2.72051-.0595-.9343-.0831-1.86955-.10384-2.80567l-.0744-2.80049-.069-2.59542-.0518-1.94869-.0324-1.21587 .28296-.17646z" fill="none" stroke="#000" stroke-linecap="round" stroke-linejoin="round" stroke-width=".38791"/>
   <path d="m351.93746,543.56998c-.34499.11216-.69575.20593-1.04353.3095-.55895.1502-1.11535.3083-1.67265.46462-.57691.13881-1.14489.31046-1.71977.45715-.59965.15056-1.20956.25299-1.82068.34349-.42357.0571-.21117.0298-.6372.0821l.28588-.21313c.42569-.0528.21346-.0252.63668-.0828 .61047-.0913 1.21967-.19471 1.81849-.34644 .57447-.14769 1.14284-.31765 1.71926-.45782 .55707-.15693 1.11406-.31287 1.6724-.46507 .34758-.10288.6987-.1954 1.04176-.31228l-.28064.22068z" fill="none" stroke="#000" stroke-linecap="round" stroke-linejoin="round" stroke-width=".4"/>
   <path d="m341.99726,550.48743c.42939.0979.85458.21937 1.28559.31533 .58987.12784 1.18763.21272 1.78608.28817 .6306.0806 1.26268.13542 1.89829.14463 .60045.007 1.19876-.0623 1.79665-.11007 .58909-.0767 1.17672-.16297 1.76673-.23267 .62124-.0938 1.24146-.19035 1.85726-.31512 .57348-.0973 1.12775-.27937 1.64881-.53593-.0262.0134-.10121.0591-.0785.0403 .34424-.28418.63696-.53344.90526-.89686 .31159-.44654.51462-.95187.693-1.46273 .18291-.56.31983-1.13448.40794-1.71675 .0822-.55455-.0662-1.08511-.2056-1.61544-.17937-.51344-.31919-1.03902-.48074-1.55788-.18163-.53923-.31983-1.09078-.43827-1.64684l-.0567-.29353 .31461-.16792 .0564.29293c.11784.55508.25532,1.10572.43671,1.64391 .16215.51921.30107,1.04563.48152,1.55929 .14066.53442.29195,1.06918.21221,1.62831-.0862.58432-.22355,1.1605-.40506,1.72272-.17745.51354-.37933,1.02166-.68861,1.47239-.38305.52811-.83365.93857-1.4329,1.22056-.52439.25206-1.0797.43184-1.65431.52875-.61632.12411-1.23722.22013-1.85901.31281-.59015.0703-1.17785.15799-1.76754.23158-.5985.048-1.19751.1162-1.79866.10731-.63634-.0107-1.26924-.0672-1.90057-.14783-.59915-.0762-1.19761-.16189-1.78805-.29087-.43073-.0966-.85527-.21921-1.28544-.31447l.29293-.20411z" fill="none" stroke="#000" stroke-linecap="round" stroke-linejoin="round" stroke-width=".4"/>
   <path d="m352.38226,543.44034c.0616-.041.12088-.0855.17824-.13219 .0969-.0808.20165-.15127.30409-.22475l.3501-.25937c.11518-.0829.22285-.17472.32641-.27156 .10134-.0926.20165-.18637.29513-.28698l.28403-.30526c.0919-.10332.17644-.21257.26256-.3206s.16594-.2365.2355-.3629l.0814-.0364c-.0693.12687-.14472.25101-.23487.3643s-.17052.21764-.26232.32116l-.28402.30529c-.0931.10111-.19341.19498-.29488.28757-.10328.0973-.2109.18941-.32601.2726l-.35007.25943c-.10249.0733-.20709.14389-.30427.22418-.0569.0473-.11622.092-.17804.13254l-.0829.033z" fill="none" stroke="#000" stroke-linecap="round" stroke-linejoin="round" stroke-width=".4"/>
   <path d="m321.48146,546.44706c.0947.0166.19075.0231.28648.0301 .14148.01.28318.0161.42488.0216 .18086.007.36183.0101.54279.0132 .24554.005.49121.003.73665.0114l.72253.0355c.22161.008.44317.0214.66499.0213l.61462-.019c.19539-.0137.38921-.0437.58356-.0674 .18778-.0268.37285-.0697.55651-.11642 .17022-.0387.33299-.10273.499-.15569 .15203-.0524.30201-.11093.44968-.17451l.0701-.0335c.0677-.0348.13447-.0733.20099-.11046s.0878-.0441.0502-.0334l.0831-.0324c-.1544.0946-.31051.18752-.4743.26504l-.45019.17384c-.16598.0532-.32898.11675-.49933.15525-.18386.0466-.36918.0892-.55718.11551-.19444.0238-.38836.0538-.58389.067l-.61493.0185c-.22188-.00039-.44352-.013-.6652-.0216l-.72246-.0354c-.24544-.008-.49107-.006-.73659-.0112l-.54295-.0133-.42508-.0218c-.096-.007-.19236-.0137-.28718-.031l.0732-.051z" fill="none" stroke="#000" stroke-linecap="round" stroke-linejoin="round" stroke-width=".4"/>
   <path d="m337.97966,542.83099-.39496-.10285c-.17057-.0517-.34363-.0925-.51847-.12665-.18263-.0385-.36321-.0856-.54529-.12639l-.56444-.15489c-.16704-.0501-.33236-.10485-.49184-.17558-.1024-.0455-.2037-.0934-.30353-.14431l.0745-.0489 .30326.14391c.15939.0702.32452.12467.49126.17475 .18618.0578.37448.10876.56403.15429 .18197.041.36254.0879.54515.12619 .1749.0344.34792.0757.51872.12698l.39467.10224-.0731.0513z" fill="#fca" stroke="#000" stroke-linecap="round" stroke-linejoin="round" stroke-width=".4"/>
   <path d="m337.13 548.92c-3.7703-1.0647-6.4596-2.3144-8.1227-3.7746-3.3836-2.9709-3.2481-4.555 1.3338-15.587 1.888-4.5458 3.868-9.8136 4.4-11.706 0.72786-2.5896 1.0928-3.3928 1.4749-3.2461 1.4013 0.53774 8.3276 0.96676 12.986 0.80435l5.2491-0.18302-0.57768 0.88164c-1.4206 2.1682-6.6647 5.1184-13.554 7.6251l-3.2759 1.192-0.54207 1.9844c-0.75256 2.7549-2.0184 10.393-2.065 12.46-0.0579 2.5695 0.2394 3.1632 1.7233 3.4416 0.70952 0.13311 1.629 0.46408 2.0432 0.7355s2.3552 1.0734 4.3132 1.7822c5.2142 1.8875 5.4704 2.2404 2.597 3.5782-2.3311 1.0853-4.172 1.088-7.9833 0.0118z" fill="#ffe8c6"/>
   <path d="m344.57 550.65c-0.2643-0.1208 0.29359-0.57876 1.3407-1.1006 2.192-1.0923 2.7255-2.354 1.4367-3.3976-0.45029-0.36463-0.75577-0.7071-0.67884-0.76105s1.4204-0.40696 2.9854-0.78448c1.9016-0.45869 3.2136-1.0095 3.955-1.6605l1.1094-0.97411 0.4569 1.7827c0.81772 3.1906-0.25825 5.6819-2.7581 6.3862-1.5646 0.4408-7.1972 0.80642-7.8471 0.50936z" fill="#ffe8c6"/>
   <path d="m358.25 570.72c-0.69448-0.0626-2.0014-0.19978-2.9042-0.30476-4.4265-0.51469-9.3204-0.57019-21.276-0.24132-9.401 0.2586-13.467 0.17103-15.847-0.3413-2.9329-0.63134-5.2223-2.5002-6.6848-5.4571-1.1104-2.2449-1.7544-5.5139-1.7584-8.9252-3e-3 -2.823 0.47704-4.2389 1.9307-5.6905 1.2223-1.2206 2.4373-1.6849 6.9544-2.6578 1.1942-0.25718 1.6142-0.28231 4.23-0.25307 3.1012 0.0347 3.7361-0.0395 4.7663-0.55695l0.61091-0.30684 0.85243 0.62c1.808 1.315 3.3462 1.9774 7.0286 3.0266 2.788 0.79438 3.1326 0.87325 4.2446 0.97146 0.51285 0.0453 1.0177 0.15553 1.1218 0.24495 0.33873 0.29078 2.8893 0.70948 4.7351 0.7773 1.4057 0.0516 2.1557 9e-3 3.6618-0.20788 3.1082-0.44773 4.1465-0.79992 5.0313-1.7067 0.94766-0.97117 1.7071-3.1799 1.5595-4.5353-0.0836-0.76762-1.1297-4.4547-1.317-4.642-0.18109-0.1811-0.57771 0.0854-0.76845 0.51628-0.15074 0.34056-1.2455 1.492-1.7274 1.8168-0.34768 0.23436-4.6565 1.4064-6.124 1.6658-0.65975 0.11662-1.3514 0.2918-1.5371 0.38931-0.31013 0.16288-0.45374 0.13536-1.7678-0.33869-0.78662-0.28379-1.9984-0.71552-2.6929-0.95941s-1.5468-0.60215-1.894-0.79614-0.94386-0.42192-1.3258-0.5065c-1.7902-0.39643-1.7971-0.40289-2.0277-1.8893-0.15537-1.0014-0.0797-1.714 0.57717-5.4371 0.23894-1.3542 0.51859-3.0658 0.62145-3.8034 0.23482-1.6839 0.72142-3.8426 1.1039-4.8974l0.29337-0.80898 3.0936-1.1621c6.6174-2.4857 10.645-4.6422 12.771-6.8382 0.63609-0.65696 2.0473-2.5124 2.1538-2.8317 0.0226-0.0677 0.7506-0.28105 1.6179-0.47413l1.5768-0.35105 0.0788 0.45035c0.0434 0.2477 0.11649 2.2402 0.1625 4.4278 0.16778 7.9779 0.61153 11.643 2.2827 18.856 0.50749 2.1903 2.4452 8.5427 2.8389 9.3068 0.53072 1.03 1.7156 1.6136 2.9565 1.4563 0.89888-0.11397 1.27-0.24195 3.4009-1.173 3.116-1.3614 4.5785-1.469 6.5886-0.48473 1.8747 0.91789 4.2696 3.2902 5.1034 5.0554 1.235 2.6143 1.9256 6.7914 1.5291 9.2493-0.49004 3.0377-2.2663 5.8901-4.3101 6.9214-1.1932 0.6021-2.1382 0.87346-4.7847 1.3739-5.3116 1.0044-13.661 1.7292-16.731 1.4524z" fill="#ffa52a" stroke="#666" stroke-linecap="round" stroke-linejoin="round" stroke-width=".01313"/>
  </g>
  <path transform="matrix(2.5637 0 0 2.8341 -767.96 -651.04)" d="m435.38 525.95a8.46 3.1567 0 1 1 -16.92 0 8.46 3.1567 0 1 1 16.92 0z" fill="#ffb9a3"/>
  <path transform="matrix(2.82 0 0 2.8341 -1033 -649.42)" d="m435.38 525.95a8.46 3.1567 0 1 1 -16.92 0 8.46 3.1567 0 1 1 16.92 0z" fill="#ffb9a3"/>
  <path d="m248.4 880.87c-3.5848-0.35107-10.486-1.3702-15.336-2.2648s-16.41-2.1308-25.688-2.7472c-19.6-1.302-21.742-1.5572-29.743-3.5432-8.0291-1.9929-13.735-4.8094-17.855-8.8134-4.064-3.9498-4.9285-5.9399-4.9285-11.346v-4.0552l4.0257 1.0892c6.0717 1.6428 22.632 0.95059 28.096-1.1744 5.1412-1.9994 7.7525-4.376 7.7525-7.0556 0-7.3771-20.085-11.098-38.915-7.2094-2.2565 0.466-2.4922 0.34245-2.4927-1.3065-1e-3 -3.4508-3.8871-15.985-9.6172-31.02-5.9782-15.686-8.4858-23.996-9.2846-30.768-0.44066-3.7359-0.32741-4.1105 1.7785-5.8825 1.237-1.0409 4.6325-5.4566 7.5454-9.8126s7.9065-10.558 11.097-13.781c7.135-7.2096 9.9308-8.2502 23.831-8.8703 11.123-0.49625 17.921 0.66284 34.834 5.9393 14.499 4.5234 21.653 5.5839 34.518 5.117 15.197-0.55151 26.321-3.8306 47.925-14.127 10.843-5.1674 12.239-5.6054 18.066-5.6673 12.386-0.1314 31.039 12.055 40.24 26.291 1.7039 2.6362 3.4968 5.0396 3.9844 5.341 0.67042 0.41434 0.66587 3.6908-0.0193 13.446-0.96088 13.693-2.172 19.612-6.6384 32.444-3.3742 9.694-5.024 18.756-5.024 27.596v6.6836l-3.6423-1.7964c-11.504-5.6736-34.71-3.0449-37.742 4.2753-0.90825 2.1927-0.85406 2.6736 0.50877 4.514 4.7734 6.4463 26.893 8.4077 37.216 3.3001 2.8872-1.4285 2.8926-1.4281 2.8836 0.19796-0.0129 2.3908-1.861 8.9272-3.3213 11.75-1.8344 3.5455-5.5041 6.0064-11.622 7.7938-16.792 4.9058-43.154 11.999-50.528 13.596-9.6373 2.0871-22.169 2.8205-31.904 1.8672zm10.33-17.49c2.5005-1.2615 11.141-9.2134 11.141-10.253 0-1.5052-1.8474-0.40938-5.547 3.2902-4.9686 4.9686-9.6144 7.1325-14.017 6.529-4.7686-0.65358-11.103-3.2227-16.422-6.6605-5.299-3.4249-5.4217-3.4686-5.4217-1.9308 0 1.5885 4.246 4.6108 10.393 7.3982 8.2169 3.7257 14.667 4.2538 19.873 1.627zm-56.931-38.094c6.4267-1.362 11.839-3.7179 14.587-6.3495 4.1023-3.9285 1.9443-4.5576-2.5214-0.73505-4.0439 3.4614-10.36 5.3453-19.261 5.7444-8.7331 0.39165-14.189-1.0736-22.37-6.0081-5.3537-3.229-6.6483-3.6274-6.6483-2.046 0 1.072 6.1926 5.0566 11.119 7.1542 7.8982 3.3633 16.269 4.1104 25.095 2.2399zm106.06-1.5652c6.0679-1.5286 15.579-6.3976 17.443-8.9294 2.3664-3.2143 1.1995-4.4423-1.4213-1.4958-7.1465 8.035-23.573 11.518-36.1 7.6551-2.8912-0.89151-6.8843-2.4443-8.8736-3.4506-4.2733-2.1618-4.4346-2.185-4.4346-0.63708 0 1.3801 6.5752 4.6012 13.419 6.5737 5.7729 1.6639 14.024 1.7812 19.968 0.284z" fill="#ffe8c6"/>
 </g>
</svg>
